<svg version="1.1" xmlns="http://www.w3.org/2000/svg" xmlns:xlink="http://www.w3.org/1999/xlink" data-browser="Chrome[45.0]" preserveAspectRatio="xMidYMid meet" viewBox="0 0 589 75"><g id="logo__item--business" class="logo__item">
                <g class="logo__item__inner" transform="translate(126.4765625 48.19525077606556) scale(1 1) rotate(0 0 0)">
                    <text dy="" dominant-baseline="auto" alignment-baseline="auto" font-family="'Montserrat-Bold'" font-size="32px" fill="#fbfcfd" letter-spacing="0" font-weight="normal" font-style="normal">Cornerstone Computing, Inc</text>
                </g>
            </g><g id="logo__item--logo_0" class="logo__item">
    <g class="logo__item__inner" transform="translate(-5.201222069890946 -28.5) scale(1.3622895857943784 1.3622895857943784) rotate(0 0 0)">
        
<g>
	<g>
		<radialGradient id="SVGID_1_" cx="39.5454" cy="10.0547" r="89.3833" gradientUnits="userSpaceOnUse">
			<stop offset="0" style="stop-color:#FFFFFF"></stop>
			<stop offset="0.0206" style="stop-color:#FDEDD9"></stop>
			<stop offset="0.0479" style="stop-color:#FCD7AD"></stop>
			<stop offset="0.0774" style="stop-color:#FAC587"></stop>
			<stop offset="0.1086" style="stop-color:#F9B566"></stop>
			<stop offset="0.142" style="stop-color:#F8A84C"></stop>
			<stop offset="0.1786" style="stop-color:#F79E37"></stop>
			<stop offset="0.2198" style="stop-color:#F69729"></stop>
			<stop offset="0.2696" style="stop-color:#F69321"></stop>
			<stop offset="0.3515" style="stop-color:#F6921E"></stop>
			<stop offset="0.8242" style="stop-color:#BA461D"></stop>
			<stop offset="1" style="stop-color:#BA461D"></stop>
		</radialGradient>
		<polygon fill="#f3f3f3" points="86.4,49.639 81.43,48.864 82.208,43.892 87.178,44.669   "></polygon>
		<radialGradient id="SVGID_2_" cx="39.5693" cy="10.0571" r="89.3517" gradientUnits="userSpaceOnUse">
			<stop offset="0" style="stop-color:#FFFFFF"></stop>
			<stop offset="0.0206" style="stop-color:#FDEDD9"></stop>
			<stop offset="0.0479" style="stop-color:#FCD7AD"></stop>
			<stop offset="0.0774" style="stop-color:#FAC587"></stop>
			<stop offset="0.1086" style="stop-color:#F9B566"></stop>
			<stop offset="0.142" style="stop-color:#F8A84C"></stop>
			<stop offset="0.1786" style="stop-color:#F79E37"></stop>
			<stop offset="0.2198" style="stop-color:#F69729"></stop>
			<stop offset="0.2696" style="stop-color:#F69321"></stop>
			<stop offset="0.3515" style="stop-color:#F6921E"></stop>
			<stop offset="0.8242" style="stop-color:#BA461D"></stop>
			<stop offset="1" style="stop-color:#BA461D"></stop>
		</radialGradient>
		<polygon fill="#f3f3f3" points="91.13,42.723 86.16,41.948 86.936,36.976 91.905,37.753   "></polygon>
		<radialGradient id="SVGID_3_" cx="39.564" cy="10.0674" r="89.3528" gradientUnits="userSpaceOnUse">
			<stop offset="0" style="stop-color:#FFFFFF"></stop>
			<stop offset="0.0206" style="stop-color:#FDEDD9"></stop>
			<stop offset="0.0479" style="stop-color:#FCD7AD"></stop>
			<stop offset="0.0774" style="stop-color:#FAC587"></stop>
			<stop offset="0.1086" style="stop-color:#F9B566"></stop>
			<stop offset="0.142" style="stop-color:#F8A84C"></stop>
			<stop offset="0.1786" style="stop-color:#F79E37"></stop>
			<stop offset="0.2198" style="stop-color:#F69729"></stop>
			<stop offset="0.2696" style="stop-color:#F69321"></stop>
			<stop offset="0.3515" style="stop-color:#F6921E"></stop>
			<stop offset="0.8242" style="stop-color:#BA461D"></stop>
			<stop offset="1" style="stop-color:#BA461D"></stop>
		</radialGradient>
		<polygon fill="#f3f3f3" points="66.27,32.518 62.711,31.96 63.267,28.404 66.825,28.959   "></polygon>
		<radialGradient id="SVGID_4_" cx="39.583" cy="10.0791" r="89.3067" gradientUnits="userSpaceOnUse">
			<stop offset="0" style="stop-color:#FFFFFF"></stop>
			<stop offset="0.0206" style="stop-color:#FDEDD9"></stop>
			<stop offset="0.0479" style="stop-color:#FCD7AD"></stop>
			<stop offset="0.0774" style="stop-color:#FAC587"></stop>
			<stop offset="0.1086" style="stop-color:#F9B566"></stop>
			<stop offset="0.142" style="stop-color:#F8A84C"></stop>
			<stop offset="0.1786" style="stop-color:#F79E37"></stop>
			<stop offset="0.2198" style="stop-color:#F69729"></stop>
			<stop offset="0.2696" style="stop-color:#F69321"></stop>
			<stop offset="0.3515" style="stop-color:#F6921E"></stop>
			<stop offset="0.8242" style="stop-color:#BA461D"></stop>
			<stop offset="1" style="stop-color:#BA461D"></stop>
		</radialGradient>
		<polygon fill="#f3f3f3" points="78.301,33.199 74.681,32.634 75.246,29.015 78.865,29.58   "></polygon>
		<radialGradient id="SVGID_5_" cx="39.5664" cy="10.063" r="89.3543" gradientUnits="userSpaceOnUse">
			<stop offset="0" style="stop-color:#FFFFFF"></stop>
			<stop offset="0.0206" style="stop-color:#FDEDD9"></stop>
			<stop offset="0.0479" style="stop-color:#FCD7AD"></stop>
			<stop offset="0.0774" style="stop-color:#FAC587"></stop>
			<stop offset="0.1086" style="stop-color:#F9B566"></stop>
			<stop offset="0.142" style="stop-color:#F8A84C"></stop>
			<stop offset="0.1786" style="stop-color:#F79E37"></stop>
			<stop offset="0.2198" style="stop-color:#F69729"></stop>
			<stop offset="0.2696" style="stop-color:#F69321"></stop>
			<stop offset="0.3515" style="stop-color:#F6921E"></stop>
			<stop offset="0.8242" style="stop-color:#BA461D"></stop>
			<stop offset="1" style="stop-color:#BA461D"></stop>
		</radialGradient>
		<polygon fill="#f3f3f3" points="72.121,38.829 68.502,38.263 69.066,34.641 72.688,35.209   "></polygon>
		<radialGradient id="SVGID_6_" cx="-149.2188" cy="-38.8647" r="416.2657" gradientUnits="userSpaceOnUse">
			<stop offset="0" style="stop-color:#FFFFFF"></stop>
			<stop offset="0.0206" style="stop-color:#FDEDD9"></stop>
			<stop offset="0.0479" style="stop-color:#FCD7AD"></stop>
			<stop offset="0.0774" style="stop-color:#FAC587"></stop>
			<stop offset="0.1086" style="stop-color:#F9B566"></stop>
			<stop offset="0.142" style="stop-color:#F8A84C"></stop>
			<stop offset="0.1786" style="stop-color:#F79E37"></stop>
			<stop offset="0.2198" style="stop-color:#F69729"></stop>
			<stop offset="0.2696" style="stop-color:#F69321"></stop>
			<stop offset="0.3515" style="stop-color:#F6921E"></stop>
			<stop offset="0.8242" style="stop-color:#BA461D"></stop>
			<stop offset="1" style="stop-color:#BA461D"></stop>
		</radialGradient>
		<polygon fill="#f3f3f3" points="90.527,32.258 82.909,31.066 84.101,23.449 91.719,24.64   "></polygon>
		<radialGradient id="SVGID_7_" cx="39.582" cy="10.0698" r="89.3228" gradientUnits="userSpaceOnUse">
			<stop offset="0" style="stop-color:#FFFFFF"></stop>
			<stop offset="0.0206" style="stop-color:#FDEDD9"></stop>
			<stop offset="0.0479" style="stop-color:#FCD7AD"></stop>
			<stop offset="0.0774" style="stop-color:#FAC587"></stop>
			<stop offset="0.1086" style="stop-color:#F9B566"></stop>
			<stop offset="0.142" style="stop-color:#F8A84C"></stop>
			<stop offset="0.1786" style="stop-color:#F79E37"></stop>
			<stop offset="0.2198" style="stop-color:#F69729"></stop>
			<stop offset="0.2696" style="stop-color:#F69321"></stop>
			<stop offset="0.3515" style="stop-color:#F6921E"></stop>
			<stop offset="0.8242" style="stop-color:#BA461D"></stop>
			<stop offset="1" style="stop-color:#BA461D"></stop>
		</radialGradient>
		<polygon fill="#f3f3f3" points="81.395,42.143 75.539,41.229 76.424,35.547 82.278,36.461   "></polygon>
		<radialGradient id="SVGID_8_" cx="39.5688" cy="10.0669" r="89.3452" gradientUnits="userSpaceOnUse">
			<stop offset="0" style="stop-color:#FFFFFF"></stop>
			<stop offset="0.0206" style="stop-color:#FDEDD9"></stop>
			<stop offset="0.0479" style="stop-color:#FCD7AD"></stop>
			<stop offset="0.0774" style="stop-color:#FAC587"></stop>
			<stop offset="0.1086" style="stop-color:#F9B566"></stop>
			<stop offset="0.142" style="stop-color:#F8A84C"></stop>
			<stop offset="0.1786" style="stop-color:#F79E37"></stop>
			<stop offset="0.2198" style="stop-color:#F69729"></stop>
			<stop offset="0.2696" style="stop-color:#F69321"></stop>
			<stop offset="0.3515" style="stop-color:#F6921E"></stop>
			<stop offset="0.8242" style="stop-color:#BA461D"></stop>
			<stop offset="1" style="stop-color:#BA461D"></stop>
		</radialGradient>
		<path fill="#f3f3f3" d="M71.934,46.563l0.688-4.399c-0.674-0.659-1.443-1.222-2.292-1.656l-3.021-0.472l0.073-0.47    c-0.445-0.063-0.896-0.096-1.358-0.096c-0.396,0-0.782,0.025-1.163,0.07c-1.47-3.312-4.788-5.629-8.648-5.629    c-0.803,0-1.583,0.104-2.327,0.291c-2.211-4.511-6.848-7.618-12.209-7.618c-5.872,0-10.87,3.718-12.772,8.928    c-1.32-0.348-2.704-0.535-4.135-0.535c-8.94,0-16.192,7.249-16.192,16.193c0,0.231,0.008,0.462,0.018,0.688    c0.002-0.002,0.01-0.008,0.01-0.008l0.071,1.084c0.035,0.311,0.078,0.618,0.128,0.923l10.218,1.808    c5.941-6.739,7.537-6.562,7.537-6.562c1.373,0.088,9.178,1.373,9.178,1.373c2.526,0.399,1.994,1.375,1.994,1.375    c-0.134,1.508-1.02,1.063-1.02,1.063c-9.221-1.727-7.128,0.016-7.128,0.016c10.583,8.88,18.325,13.164,23.987,14.751    c1.348-0.763,2.534-1.775,3.498-2.974c1.051,0.563,2.247,0.883,3.52,0.883c4.104,0,7.434-3.321,7.446-7.426    c4.256-0.921,7.446-4.704,7.446-9.238c0-0.63-0.066-1.242-0.183-1.837L71.934,46.563z M18.179,53.313    c-1.961,0-3.549-1.585-3.549-3.544s1.588-3.549,3.549-3.549c1.957,0,3.544,1.59,3.544,3.549S20.136,53.313,18.179,53.313z     M60.873,38.836l-2.186-0.34l0.341-2.186l2.183,0.34L60.873,38.836z M62.727,41.96l3.167,0.495l-0.497,3.168l-3.165-0.495    L62.727,41.96z M67.121,51.083l-2.166-0.341l0.338-2.166l2.166,0.338L67.121,51.083z M70.175,48.309l-2.595-0.404l0.403-2.595    l2.596,0.406L70.175,48.309z"></path>
	</g>
	<radialGradient id="SVGID_9_" cx="53.0088" cy="41.7153" r="106.7842" gradientUnits="userSpaceOnUse">
		<stop offset="0" style="stop-color:#00ADEE"></stop>
		<stop offset="0.0016" style="stop-color:#01ADEE"></stop>
		<stop offset="0.0526" style="stop-color:#15ABE6"></stop>
		<stop offset="0.1029" style="stop-color:#22A9E2"></stop>
		<stop offset="0.1515" style="stop-color:#26A9E0"></stop>
		<stop offset="0.3273" style="stop-color:#1B75BB"></stop>
		<stop offset="0.5212" style="stop-color:#2B388F"></stop>
		<stop offset="0.7576" style="stop-color:#1C1651"></stop>
		<stop offset="1" style="stop-color:#120742"></stop>
	</radialGradient>
	<path fill="#f3f3f3" d="M69.103,60.032c-0.051,0-0.102-0.006-0.152-0.009c-0.171,1.482-3.436,24.17-39.286-5.924   c0,0-2.093-1.742,7.128-0.01c0,0,0.889,0.44,1.02-1.065c0,0,0.533-0.975-1.994-1.373c0,0-7.804-1.288-9.178-1.376   c0,0-1.595-0.177-7.537,6.561L7.957,54.902l-0.131-1.994c0,0-4.008,3.544,0.505,4.858c0,0,14.1,5.367,16.405,4.302   c0,0,23.762,16.271,39.19,10.861c0,0,11.924-3.168,9.494-15.079C72.505,59.161,70.915,60.032,69.103,60.032z"></path>
</g>

    </g>
</g></svg>